<?xml version="1.0" standalone="no"?>
<!DOCTYPE svg PUBLIC "-//W3C//DTD SVG 20010904//EN"
 "http://www.w3.org/TR/2001/REC-SVG-20010904/DTD/svg10.dtd">
<svg version="1.0" xmlns="http://www.w3.org/2000/svg"
 width="280.000000pt" height="280.000000pt" viewBox="0 0 280.000000 280.000000"
 preserveAspectRatio="xMidYMid meet">
<metadata>
Created by potrace 1.11, written by Peter Selinger 2001-2013
</metadata>
<g transform="translate(0.000000,280.000000) scale(0.100000,-0.100000)"
fill="#000000" stroke="none">
<path d="M1260 2793 c-345 -62 -616 -303 -711 -633 -45 -154 -42 -345 7 -501
53 -167 109 -253 285 -432 l129 -131 140 139 c77 77 139 143 138 147 -2 4 -51
56 -110 116 -125 127 -170 190 -198 279 -82 266 85 551 355 608 157 33 319
-14 434 -126 114 -111 163 -267 137 -429 -5 -25 -24 -79 -43 -120 -34 -70 -57
-96 -374 -415 l-337 -339 136 -138 c76 -76 142 -138 147 -138 16 0 676 667
717 725 69 97 134 250 153 361 12 69 13 217 3 284 -42 281 -228 536 -483 660
-129 63 -209 81 -365 85 -74 1 -146 1 -160 -2z"/>
<path d="M1311 2190 c-160 -54 -241 -232 -180 -395 58 -154 250 -232 402 -162
188 87 236 333 93 481 -86 88 -200 115 -315 76z"/>
<path d="M620 386 c-89 -28 -150 -104 -150 -188 0 -106 95 -199 204 -198 34 0
109 31 121 50 4 7 -4 24 -20 40 -26 28 -29 28 -56 15 -48 -25 -87 -19 -125 19
-36 36 -41 62 -23 114 20 58 100 83 153 49 22 -15 24 -14 49 16 15 18 27 35
27 38 0 11 -78 48 -111 52 -19 2 -50 -1 -69 -7z"/>
<path d="M1096 332 c-4 -3 -6 -72 -6 -154 0 -111 3 -148 13 -149 6 -1 54 -2
104 -3 l93 -1 0 28 0 27 -79 0 -79 0 2 38 2 37 62 0 c49 0 62 3 62 15 0 29
-16 39 -70 42 -53 3 -55 4 -57 33 -1 16 2 32 7 35 6 3 41 6 80 5 l70 -1 0 28
0 29 -99 -2 c-55 -1 -102 -4 -105 -7z"/>
<path d="M2038 303 c-16 -4 -18 -18 -18 -114 0 -103 1 -111 25 -134 40 -41
116 -31 87 11 -4 6 -19 14 -33 17 -22 6 -25 12 -25 47 0 34 3 40 22 40 19 0
21 4 15 28 -4 15 -14 27 -22 27 -9 0 -14 11 -15 30 -3 61 0 58 -36 48z"/>
<path d="M915 253 c-40 -8 -65 -27 -84 -65 -64 -129 127 -234 197 -109 27 48
28 77 2 118 -27 45 -68 65 -115 56z m69 -72 c15 -24 13 -61 -5 -80 -25 -26
-63 -27 -89 -1 -27 27 -25 56 4 85 22 22 28 23 55 14 17 -6 33 -14 35 -18z"/>
<path d="M1614 249 c-50 -14 -76 -50 -77 -108 -1 -40 4 -56 23 -76 36 -38 87
-51 133 -31 20 8 37 19 37 25 0 11 -55 25 -67 18 -5 -3 -24 2 -43 11 l-35 17
90 5 c81 5 89 7 89 25 -3 84 -71 136 -150 114z m86 -70 c0 -5 -25 -9 -56 -9
-46 0 -53 2 -42 13 7 8 20 16 28 19 19 6 70 -11 70 -23z"/>
<path d="M1880 250 c-8 -5 -32 -7 -52 -3 l-38 6 0 -116 c0 -111 1 -116 20
-112 34 7 36 12 34 77 -2 69 13 98 51 98 38 0 53 -28 51 -100 -2 -68 4 -81 35
-73 17 5 19 15 19 82 0 87 -13 115 -66 137 -39 16 -35 16 -54 4z"/>
<path d="M1314 178 c69 -150 67 -148 98 -148 27 0 32 8 78 106 28 58 50 108
50 110 0 2 -12 4 -27 4 -25 0 -32 -9 -64 -78 l-37 -77 -37 78 c-34 69 -40 77
-66 77 l-28 0 33 -72z"/>
<path d="M2178 233 c-41 -49 -24 -92 48 -124 25 -10 42 -23 39 -29 -8 -13 -52
-13 -60 1 -7 10 -45 -16 -45 -32 0 -9 57 -29 85 -29 33 0 75 37 75 67 0 24
-57 90 -68 79 -7 -8 -42 13 -42 26 0 7 14 8 39 4 29 -4 42 -2 52 10 11 14 10
18 -6 30 -27 20 -98 18 -117 -3z"/>
</g>
</svg>
